<svg width="40" height="40" viewBox="0 0 40 40" fill="none" xmlns="http://www.w3.org/2000/svg">
<g clip-path="url(#clip0_399_714)">
<path d="M15.1133 13.5595L21.5531 20L15.1133 26.4405L18.2878 29.6156L27.9034 20L18.2878 10.385L15.1133 13.5595Z" fill="#C97562"/>
<path d="M19.9994 0C8.95359 0.00117187 0.00117187 8.95359 0 20C0.00117187 31.0464 8.95359 39.9987 19.9994 40C31.0464 39.9987 39.9988 31.0464 40 20C39.9988 8.95359 31.0464 0.00117187 19.9994 0ZM31.9207 31.9207C28.8646 34.9737 24.6599 36.8573 19.9994 36.8586C15.3395 36.8573 11.1348 34.9737 8.0793 31.9207C5.02562 28.8652 3.14203 24.6599 3.14141 20C3.14203 15.3395 5.02562 11.1348 8.0793 8.0793C11.1348 5.02562 15.3395 3.14203 19.9994 3.14141C24.6599 3.14203 28.8647 5.02562 31.9207 8.0793C34.9744 11.1348 36.858 15.3395 36.8586 20C36.858 24.6599 34.9744 28.8652 31.9207 31.9207Z" fill="#C97562"/>
</g>
<defs>
<clipPath id="clip0_399_714">
<rect width="40" height="40" fill="white"/>
</clipPath>
</defs>
</svg>
