<svg width="1200" height="967" viewBox="0 0 1200 967" fill="none" xmlns="http://www.w3.org/2000/svg">
<ellipse cx="600" cy="472.379" rx="600" ry="472.379" fill="#FDFDFD"/>
<path d="M600 0C931.371 0 1200 211.491 1200 472.379L1199.99 475.434C1198.2 697.269 1002.2 882.822 739.113 931.994V927.939C1001.71 878.619 1196 692.781 1196 472.379C1196 214.539 930.106 4 600 4C269.894 4 4.00008 214.539 4 472.379C4 730.219 269.894 940.758 600 940.758C636.352 940.758 671.926 938.202 706.451 933.313V937.344C671.902 942.214 636.328 944.758 600 944.758L596.12 944.748C267.827 943.111 2.09155 733.898 0.0126953 475.434L0 472.379C8.37979e-05 211.491 268.629 0 600 0Z" fill="#6D807E"/>
<path d="M713.709 908.468L737.654 964.01" stroke="#6D807E" stroke-width="4" stroke-linecap="round"/>
</svg>
