<svg width="120" height="80" viewBox="0 0 120 80" fill="none" xmlns="http://www.w3.org/2000/svg">
<g clip-path="url(#clip0_315_1568)">
<path d="M86.3588 0.217453C79.348 1.31528 74.2393 7.22832 74.2393 14.2283C74.2393 22.0653 80.5436 28.3696 88.3697 28.3696C96.1958 28.3696 102.5 22.0653 102.5 14.2283C102.5 7.60876 97.9458 1.93484 91.4132 0.423973C90.348 0.173973 87.4132 0.054409 86.3588 0.217453ZM91.0871 3.61963C93.1414 4.15224 94.6414 5.03267 96.1958 6.61963C96.848 7.28267 97.424 8.01093 97.761 8.56528C101.554 14.9348 98.2501 22.924 91.0001 24.9131C89.7936 25.2501 86.9458 25.2501 85.7393 24.9131C82.1523 23.924 79.348 21.4131 78.0871 18.0544C77.1197 15.4892 77.1849 12.5544 78.2501 9.97832C79.174 7.7718 81.0436 5.73919 83.261 4.53267C85.5001 3.30441 88.5327 2.95658 91.0871 3.61963Z" fill="#C97562"/>
<path d="M7.74983 5.05436C6.03244 5.52175 4.73896 6.75002 4.22809 8.38045C4.03244 9.01089 4.02157 9.60871 4.02157 23.25V37.4565L2.05418 44.0218L0.0976562 50.5978L0.130265 52.7174C0.162874 54.7391 0.173743 54.8587 0.445482 55.4457C0.847656 56.3044 1.42374 56.8913 2.2607 57.3044L2.98896 57.6631L23.5542 57.6957L44.1303 57.7174V58.3044C44.1303 58.6196 44.2281 59.25 44.3368 59.6957C44.8911 61.8696 46.3911 63.6848 48.4237 64.6739C49.6846 65.2935 50.4237 65.4348 52.3911 65.4348C56.1303 65.4457 72.8368 65.1087 73.7716 65C75.5324 64.8152 77.1303 64.0761 78.3476 62.9022C78.6737 62.587 79.4781 61.6304 80.1303 60.7718L81.3368 59.2065L83.9781 69.0761C85.4237 74.5109 86.6737 79.0652 86.7498 79.2065C86.8259 79.3478 87.0433 79.5652 87.239 79.6739C87.5759 79.8913 87.8585 79.8913 102.978 79.8913C119.989 79.8913 118.793 79.9457 119.239 79.2065C119.359 79.0109 119.456 78.6631 119.456 78.4131C119.456 78.0109 109.467 40.2609 108.891 38.4783C108.772 38.087 108.456 37.3587 108.206 36.8478C106.641 33.7283 103.935 31.5761 100.359 30.6305C99.4129 30.3805 99.3476 30.3805 93.2063 30.3805C87.6846 30.3805 86.902 30.4022 85.9781 30.5761C84.6411 30.837 82.902 31.4131 81.8585 31.9565C80.1955 32.8261 80.1194 32.9131 74.1085 40.7826C69.1629 47.2609 68.5324 48.0544 68.4563 47.8152C68.4129 47.6739 67.7172 45.337 66.902 42.6304L65.4346 37.7065V23.5544C65.4346 11.1848 65.4129 9.31523 65.2716 8.75002C64.7716 6.85871 63.2824 5.40219 61.4346 5.01089C61.0216 4.92393 53.5107 4.89132 34.5868 4.90219C12.3368 4.90219 8.22809 4.92393 7.74983 5.05436ZM61.1411 8.25002C61.3803 8.35871 61.6629 8.55436 61.7716 8.67393C62.2824 9.23914 62.2716 8.92393 62.2824 23.0109V36.3044H53.6411H44.9998V33.1739C44.9998 29.6739 44.9563 29.3261 44.2716 27.9348C43.7281 26.8261 42.6411 25.7391 41.5107 25.1848C40.065 24.4783 39.7063 24.4348 34.2933 24.4783C29.6955 24.5218 29.489 24.5326 28.8803 24.75C26.5433 25.6305 24.989 27.3587 24.5107 29.6196C24.3911 30.1848 24.3477 31.1522 24.3477 33.337V36.3044H15.7607H7.17374V22.8805C7.17374 9.7935 7.18461 9.4348 7.38026 9.03262C7.60853 8.60871 7.98896 8.2935 8.46722 8.15219C8.6194 8.09784 20.4455 8.05436 34.7281 8.05436C59.7172 8.0435 60.7281 8.05436 61.1411 8.25002ZM39.9129 27.9239C40.5977 28.2609 41.2063 28.8587 41.5324 29.5218C41.7824 30.0435 41.7933 30.1305 41.8259 33.1739L41.8585 36.3044H34.6737H27.4781L27.5216 33.2283C27.5542 30.3805 27.5759 30.1305 27.7824 29.6631C28.065 29.0652 28.5868 28.4565 29.0868 28.1413C29.9129 27.6305 30.1085 27.6196 34.8911 27.6413C39.3911 27.6631 39.402 27.6631 39.9129 27.9239ZM99.1303 33.6305C101.228 34.0109 103.13 35.1413 104.413 36.7826C105.641 38.337 105.424 37.5978 110.815 57.8804C113.543 68.0978 115.793 76.5326 115.815 76.5978C115.848 76.7065 113.163 76.7391 102.576 76.7391H89.2933L86.4237 65.9457C84.8476 60.0218 83.489 55.0326 83.402 54.8696C82.9998 54.0544 81.6955 53.837 81.0216 54.4674C80.8803 54.5978 79.7716 56 78.5759 57.5761C77.3694 59.1522 76.1846 60.6087 75.9346 60.8152C75.2716 61.3587 74.402 61.7174 73.4781 61.837C72.4672 61.9783 51.6303 62.337 50.9455 62.2391C49.6955 62.0544 48.3259 60.9891 47.6955 59.7065C47.3585 59.0109 47.3368 58.9131 47.3368 57.7718C47.3368 56.6957 47.3694 56.5109 47.6303 55.9457C47.9672 55.2174 48.8477 54.25 49.5216 53.8587C49.7824 53.7065 50.3042 53.5109 50.6737 53.4131C51.0542 53.3261 55.4346 52.8913 60.4237 52.4348C66.5433 51.8913 69.5759 51.5761 69.7824 51.4674C69.9563 51.3804 72.5107 48.1196 76.0759 43.4565C81.5433 36.2935 82.1303 35.5544 82.7498 35.1305C83.8476 34.3913 85.5107 33.8261 87.239 33.5978C88.5324 33.4348 98.1846 33.4674 99.1303 33.6305ZM64.0542 44.1196C64.815 46.6522 65.4129 48.75 65.3911 48.7718C65.3694 48.7935 62.4455 49.0761 58.902 49.4022C52.5107 49.9891 52.402 50 48.5107 50C44.8585 50 44.5759 49.9891 44.5324 49.8044C44.4998 49.7065 44.315 48.7391 44.1194 47.6631C43.7281 45.4457 43.489 44.837 42.815 44.3478C42.0542 43.8044 41.815 43.7826 34.3477 43.8261C27.489 43.8587 27.4455 43.8587 26.9998 44.0978C26.4998 44.3587 25.9129 44.9891 25.739 45.4239C25.6846 45.5761 25.4564 46.6631 25.2281 47.8261L24.8368 49.9457L14.2064 49.9783C4.10853 50 3.57592 49.9891 3.63026 49.8152C3.66287 49.7065 4.22809 47.8044 4.89113 45.5978C5.55418 43.3804 6.24983 41.0978 6.42374 40.5109L6.74983 39.4565L34.7063 39.4783L62.6629 39.5109L64.0542 44.1196ZM41.0542 48.4674C41.1955 49.2174 41.2824 49.837 41.2716 49.8587C41.2498 49.8804 38.2716 49.8804 34.652 49.8696L28.0759 49.837L28.2607 48.8587C28.3694 48.3152 28.4781 47.6957 28.5216 47.4674L28.5977 47.0652L34.6955 47.087L40.8042 47.1196L41.0542 48.4674ZM45.5216 53.2283C45.4998 53.2826 45.3259 53.5978 45.1303 53.9348L44.7607 54.5652H24.2607H3.7607L3.5107 54.3261C3.32592 54.1522 3.2607 53.9783 3.2607 53.6196V53.1522H24.4129C36.0433 53.1522 45.5433 53.1848 45.5216 53.2283Z" fill="#C97562"/>
<path d="M33.7387 9.98912C30.9234 10.4348 28.6626 12.5326 28.043 15.2935C27.8691 16.0435 27.9017 17.663 28.0974 18.4239C28.5756 20.2935 29.9343 21.9674 31.63 22.8152C34.2821 24.1196 37.2169 23.6848 39.3474 21.6739C40.2495 20.8261 40.7495 20.0435 41.1408 18.8804C41.7169 17.1413 41.5974 15.4565 40.7604 13.7065C39.9669 12.0543 38.2278 10.6304 36.4669 10.1739C35.6191 9.96738 34.4343 9.88043 33.7387 9.98912ZM36.0213 13.3696C36.8474 13.6848 37.5321 14.3261 37.9561 15.1956C38.2604 15.8152 38.3147 16.0217 38.3147 16.7391C38.3147 17.4456 38.2604 17.663 37.9561 18.2826C36.9343 20.3696 34.4887 21 32.5539 19.6739C31.543 18.9783 31.0321 17.8587 31.1082 16.5435C31.1952 15.0435 32.0865 13.8152 33.4452 13.3152C34.0756 13.0869 35.3256 13.1087 36.0213 13.3696Z" fill="#C97562"/>
</g>
<defs>
<clipPath id="clip0_315_1568">
<rect width="119.565" height="80" fill="white"/>
</clipPath>
</defs>
</svg>
