<svg width="62" height="80" viewBox="0 0 62 80" fill="none" xmlns="http://www.w3.org/2000/svg">
<g clip-path="url(#clip0_311_1300)">
<path d="M4.27824 0.225021C2.23347 0.762222 0.732522 2.27221 0.217703 4.3194C0.072684 4.90015 0.0726839 5.03083 0.0871859 40.2178L0.108939 75.5354L0.261209 75.9782C0.587502 76.9292 1.00806 77.6043 1.70415 78.294C2.05945 78.657 2.54526 79.0562 2.77004 79.1942C3.33562 79.5208 4.27824 79.8403 4.97434 79.9274C5.36589 79.9782 13.7698 80 30.9981 79.9855C55.4411 79.9637 56.4707 79.9564 56.9203 79.833C58.0804 79.4991 59.1753 78.8021 59.9077 77.9237C60.321 77.4228 60.8503 76.392 61.0316 75.7169C61.1548 75.2668 61.1621 73.7423 61.1838 47.1869C61.1983 26.5916 61.1838 19.049 61.1258 18.8385C61.0533 18.5916 59.7626 17.2704 51.9316 9.41558C46.9212 4.39199 42.7301 0.232277 42.6213 0.174202C42.4546 0.0870895 39.8225 0.0725708 23.6238 0.079834C5.19912 0.079834 4.81482 0.079834 4.27824 0.225021ZM40.9826 10.9546L41.0044 19.5934L41.1567 19.7967C41.2437 19.9056 41.4177 20.0653 41.5555 20.1452C41.7947 20.2904 41.947 20.2904 50.3436 20.3121L58.878 20.3267V27.7677V35.2087H30.5993H2.32048V20.3339C2.32048 10.7441 2.34949 5.32847 2.39299 5.07439C2.50901 4.45733 2.91506 3.70959 3.37187 3.27402C3.79243 2.87475 4.48852 2.50451 5.01059 2.40288C5.18461 2.36658 13.3492 2.33754 23.1453 2.33028L40.9681 2.32302L40.9826 10.9546ZM50.2494 10.9982L57.2465 18.0036H50.2276H43.2159V10.9982C43.2159 7.14335 43.2232 3.99271 43.2377 3.99271C43.2449 3.99271 46.3991 7.14335 50.2494 10.9982ZM58.878 49.0018V60.4718H30.5993H2.32048V49.0018V37.5317H30.5993H58.878V49.0018ZM58.8635 68.98L58.8418 75.1724L58.5735 75.7386C58.1312 76.6678 57.3553 77.3139 56.3764 77.5753C56.0791 77.6551 51.5835 77.6769 30.592 77.6769C5.32964 77.6769 5.16286 77.6769 4.69155 77.5317C3.84319 77.2704 3.05283 76.6025 2.65403 75.8112C2.32773 75.1724 2.32048 74.9909 2.32048 68.7259V62.7949H30.5993H58.8853L58.8635 68.98Z" fill="#C97562"/>
<path d="M20.7018 42.8747C20.6221 42.8893 20.3755 42.9401 20.158 42.9836C19.6214 43.0925 18.6933 43.5354 18.1567 43.9419C17.1489 44.7041 16.3875 45.8947 16.0032 47.2958C15.7712 48.1452 15.7712 49.8802 16.0105 50.6933C16.6413 52.8856 18.106 54.4247 20.0565 54.9619C20.8033 55.1651 22.0505 55.1361 22.7684 54.8893C23.3919 54.6787 24.1098 54.2432 24.6101 53.7858C25.1684 53.2704 25.1612 53.1688 24.4796 52.4936L23.9358 51.9564L23.566 52.2904C22.4348 53.3139 21.1586 53.5535 19.9767 52.9655C17.6057 51.7894 16.8443 48.7259 18.3598 46.4029C19.1429 45.1905 20.4988 44.5009 21.6662 44.7187C22.2318 44.8203 23.0149 45.2196 23.5007 45.6551L23.9068 46.0181L24.5376 45.3793L25.1757 44.7404L24.6029 44.2178C23.5225 43.2159 21.8692 42.6497 20.7018 42.8747Z" fill="#C97562"/>
<path d="M30.6786 42.9836C29.7432 43.1651 28.8731 43.833 28.4598 44.6751C27.8217 45.9818 28.0465 47.4628 29.0181 48.2976C29.2139 48.4718 30.0478 48.9582 30.9759 49.4374C33.1222 50.5481 33.3977 50.8167 33.2019 51.6733C32.9047 53.009 31.2079 53.6479 30.0985 52.8421C29.7287 52.5735 29.3299 51.9782 29.2139 51.5281C29.1632 51.3321 29.0834 51.1869 29.0471 51.2014C29.0036 51.2159 28.5903 51.3539 28.1263 51.5063L27.2852 51.7822L27.5172 52.3702C27.8072 53.1179 28.061 53.5172 28.5468 53.9963C29.2429 54.6715 30.1928 55.0417 31.2152 55.0417C33.8835 55.0417 35.8123 52.5227 34.9349 50.1851C34.8189 49.8584 34.6594 49.6479 34.2678 49.2559C33.7965 48.7913 33.608 48.6751 32.1433 47.9201C30.2508 46.9546 30.0188 46.7659 30.0188 46.1706C30.0188 45.1542 30.9106 44.5662 31.9838 44.8639C32.3391 44.9655 32.8757 45.4446 33.0642 45.8512C33.1512 46.0326 33.2672 46.1706 33.3107 46.1561C33.4557 46.1198 34.8044 45.2631 34.8044 45.2123C34.8044 45.1833 34.6884 44.9655 34.5506 44.7332C33.7603 43.3829 32.2086 42.6787 30.6786 42.9836Z" fill="#C97562"/>
<path d="M40.8593 43.0054C40.04 43.2014 39.2206 43.7894 38.8436 44.4573C38.3577 45.2922 38.249 46.4609 38.5753 47.2958C38.8943 48.1088 39.4236 48.5154 41.6207 49.6188C43.1651 50.3956 43.5059 50.715 43.5059 51.3756C43.5059 52.2686 42.7301 53.0671 41.7439 53.1833C40.7433 53.2994 39.8732 52.6751 39.5106 51.5789C39.4454 51.3829 39.3584 51.2232 39.3294 51.2232C39.2931 51.2304 38.8798 51.3611 38.4157 51.5063L37.5674 51.7822L37.7487 52.2468C38.0314 53.0235 38.2925 53.4373 38.7928 53.9383C39.5541 54.7005 40.3808 55.0344 41.5264 55.0417C43.8395 55.049 45.7465 52.98 45.3912 50.853C45.3549 50.6134 45.2244 50.2141 45.1011 49.9673C44.7458 49.2486 44.3035 48.9074 42.5778 48.0145C40.7216 47.049 40.5113 46.911 40.359 46.5335C40.1342 45.9745 40.475 45.1905 41.0696 44.9074C41.4321 44.7332 42.0195 44.7622 42.4545 44.9655C42.8823 45.1615 43.0636 45.3502 43.3392 45.8511L43.5422 46.2214L44.2673 45.764C44.6661 45.5099 45.0214 45.2922 45.0576 45.2776C45.2026 45.2268 44.6298 44.3412 44.1875 43.9274C43.2739 43.0707 42.0195 42.7223 40.8593 43.0054Z" fill="#C97562"/>
</g>
<defs>
<clipPath id="clip0_311_1300">
<rect width="61.1982" height="80" fill="white"/>
</clipPath>
</defs>
</svg>
