<svg width="96" height="80" viewBox="0 0 96 80" fill="none" xmlns="http://www.w3.org/2000/svg">
<g clip-path="url(#clip0_315_1556)">
<path d="M29.5274 0.102676C27.5029 0.326582 25.0492 1.23154 23.3699 2.3604C18.0242 5.96157 15.7384 12.5575 17.7349 18.6123C18.9198 22.1855 21.56 25.2082 24.9559 26.8689C31.953 30.2928 40.3402 27.4473 43.8201 20.4782C46.479 15.1604 45.546 8.80705 41.4877 4.5155C38.3437 1.19422 34.0428 -0.391785 29.5274 0.102676ZM33.3524 3.4053C35.5262 3.87177 37.3268 4.85136 38.9035 6.43737C40.2189 7.74349 41.0679 9.10559 41.5997 10.7756C42.0102 12.0537 42.1128 12.7068 42.1128 14.1808C42.1128 16.1493 41.7956 17.4834 40.9 19.2187C38.4183 24.0514 32.6714 26.3278 27.5402 24.5178C26.5046 24.154 26.0755 23.9394 25.0212 23.2304C23.5658 22.2601 22.1198 20.6181 21.3174 19.0415C20.6177 17.642 20.2166 15.8974 20.2166 14.1808C20.2166 11.2327 21.3174 8.54582 23.3606 6.48402C25.1705 4.65545 27.4189 3.5639 30.0405 3.22804C30.6376 3.1534 32.69 3.26536 33.3524 3.4053Z" fill="#C97562"/>
<path d="M20.4783 30.33C16.6065 30.8338 13.2293 33.1569 11.466 36.5248C11.2235 36.9819 10.9342 37.5977 10.8223 37.8776C10.7103 38.1574 8.2287 47.3563 5.29926 58.3091C0.149402 77.6023 -0.00919855 78.2367 0.0934254 78.6472C0.224038 79.151 0.662522 79.6455 1.11966 79.7761C1.33424 79.8321 6.55873 79.8601 16.7558 79.8414L32.0654 79.8134L32.3826 79.5615C32.5599 79.4309 32.7838 79.1604 32.8678 78.9551C32.9517 78.7592 34.1832 74.2531 35.592 68.9446C37.0007 63.6362 38.1762 59.2513 38.1856 59.214C38.1949 59.1674 38.8013 59.9044 39.5197 60.8467C41.2456 63.1044 42.1506 63.8601 43.8765 64.5131C45.1453 64.9889 45.4065 64.9983 57.2363 65.2222C69.5512 65.4461 69.01 65.4554 70.5774 64.849C71.585 64.4572 72.3966 63.916 73.2456 63.0671C75.4287 60.8746 76.0538 57.6653 74.8783 54.7452C74.2252 53.1219 72.8165 51.6198 71.2118 50.8082C69.9803 50.1924 69.7471 50.1644 60.287 49.3061C51.8812 48.5411 51.4427 48.4945 51.2561 48.2986C51.1442 48.1866 48.6065 44.884 45.6211 40.9563C42.6357 37.0286 39.9955 33.614 39.7529 33.3714C38.4934 32.056 36.217 31.0111 33.4462 30.4886C32.4853 30.3114 32.0375 30.2927 26.7756 30.2741C23.6689 30.2554 20.8421 30.2834 20.4783 30.33ZM33.157 33.6607C34.9109 34.0338 36.2264 34.5843 37.1127 35.2933C37.4765 35.5732 39.2211 37.8029 43.5033 43.4286C48.7838 50.351 49.4462 51.1907 49.8194 51.3773C50.2019 51.5639 51.1255 51.6572 59.1488 52.3755C64.0468 52.8233 68.3103 53.2245 68.6182 53.2805C70.3535 53.5884 71.8369 55.0437 72.2007 56.7977C72.6112 58.7755 71.6036 60.8373 69.7844 61.7516C68.7302 62.2741 69.1033 62.2647 57.4789 62.0502C51.6013 61.9475 46.5261 61.8356 46.2182 61.8076C45.1547 61.7143 44.0911 61.2385 43.3541 60.5108C43.1395 60.2962 41.9733 58.8222 40.7605 57.2362C38.3908 54.1295 38.2789 54.0175 37.4765 54.0175C36.9634 54.0175 36.385 54.3534 36.1704 54.7639C36.0678 54.9411 34.7057 59.9417 33.1197 65.8659L30.2555 76.6414L16.9891 76.6694C9.35756 76.6787 3.73191 76.6507 3.73191 76.6041C3.73191 76.4642 13.6025 39.5382 13.7424 39.1277C14.7966 36.2076 17.6328 33.9125 20.7208 33.4927C21.0474 33.4554 23.7716 33.4274 26.7756 33.4367C31.9348 33.4647 32.28 33.4741 33.157 33.6607Z" fill="#C97562"/>
<path d="M93.714 37.5883C93.5088 37.6816 93.2476 37.8589 93.1356 37.9801C93.0143 38.1108 90.598 44.2682 87.2954 52.8513L81.6604 67.4985L63.8038 67.5452C47.1041 67.5918 45.9286 67.6011 45.6487 67.7504C44.5479 68.3568 44.5292 69.9615 45.6208 70.5399C45.9286 70.7078 46.619 70.7172 64.5409 70.7172C82.7613 70.7172 83.1438 70.7172 83.489 70.5399C83.6849 70.4373 83.9088 70.26 83.9834 70.1387C84.1607 69.8682 95.7945 39.6594 95.8785 39.2769C96.0091 38.5959 95.6266 37.9055 94.9269 37.5883C94.4511 37.3737 94.1805 37.3737 93.714 37.5883Z" fill="#C97562"/>
</g>
<defs>
<clipPath id="clip0_315_1556">
<rect width="96" height="79.9533" fill="white"/>
</clipPath>
</defs>
</svg>
