<svg width="66" height="81" viewBox="0 0 66 81" fill="none" xmlns="http://www.w3.org/2000/svg">
<g clip-path="url(#clip0_311_1322)">
<path d="M8.81497 0.225739C6.76795 0.757286 5.26 2.27184 4.73549 4.32522C4.5898 4.89317 4.5898 5.0825 4.5898 19.6018V34.2959H2.74675C0.692448 34.2959 0.568606 34.325 0.233507 34.8056L0.0732422 35.0459V45.7569C0.0732422 56.2423 0.0732422 56.4753 0.218938 56.701C0.510328 57.1816 0.561322 57.1889 2.65934 57.2326L4.55338 57.269L4.5898 66.4801C4.63351 76.8416 4.58251 75.8951 5.21629 77.1766C5.49311 77.7446 5.66794 77.9776 6.18516 78.4945C7.13218 79.4484 8.17391 79.9873 9.44146 80.1693C10.1262 80.264 46.7832 80.2712 47.1329 80.1693C47.3368 80.111 49.2746 78.2106 56.6176 70.8708C61.8627 65.6209 65.8839 61.5505 65.9276 61.434C66.0368 61.1355 66.0295 5.57764 65.9203 4.86405C65.7236 3.58979 65.2355 2.63591 64.2958 1.71116C63.5163 0.932045 62.6858 0.458748 61.6951 0.218452C61.0905 0.0728226 60.8646 0.0728226 35.2223 0.0801086C9.78384 0.0801086 9.35404 0.0801086 8.81497 0.225739ZM60.9448 2.41019C62.1905 2.63591 63.2395 3.60435 63.5673 4.83492C63.6547 5.14803 63.6693 9.61887 63.6693 32.5629V59.9267H55.1024H46.5355L46.2587 60.0796C46.1057 60.167 45.9163 60.3563 45.8289 60.5093L45.6759 60.7859V69.349V77.912L27.5587 77.8975L9.43417 77.8756L9.01894 77.7081C8.1302 77.3514 7.38715 76.5868 7.04477 75.6693L6.8845 75.2543V66.2616V57.269L30.1958 57.2326C52.9607 57.1962 53.5143 57.1962 53.711 57.0578C53.8276 56.985 53.9805 56.7957 54.0607 56.6428C54.1991 56.3734 54.1991 56.1185 54.1991 45.7424V35.1187L54.0315 34.8711C53.9441 34.74 53.7547 34.5507 53.6236 34.4633L53.3759 34.2959H30.1156H6.84808V19.8858C6.84808 10.6019 6.87722 5.34463 6.92093 5.08978C7.03748 4.47085 7.44543 3.72086 7.90437 3.28397C8.32689 2.88348 9.02622 2.51212 9.55073 2.41019C10.0461 2.31553 60.413 2.31553 60.9448 2.41019ZM51.868 45.8006V54.9753H27.0997H2.33152V45.8006V36.6259H27.0997H51.868V45.8006ZM61.9938 62.2422C61.9938 62.2714 58.8468 65.4388 55.0004 69.2835L48.007 76.2737V69.2252V62.184H55.0004C58.8468 62.184 61.9938 62.2058 61.9938 62.2422Z" fill="#C97562"/>
<path d="M38.4346 8.39557C37.9538 9.47323 29.4307 29.2789 29.4307 29.3153C29.4307 29.3299 29.9916 29.3372 30.6764 29.3299L31.9221 29.308L36.5042 18.677C39.0247 12.83 41.0863 8.03878 41.0863 8.02422C41.0863 8.01693 40.5254 8.00965 39.8406 8.00965H38.6022L38.4346 8.39557Z" fill="#C97562"/>
<path d="M43.418 11.0097V12.4878L47.0604 15.5679C49.0637 17.2645 50.6882 18.6771 50.6736 18.7062C50.6517 18.7353 49.0127 20.1334 47.0312 21.8154L43.418 24.8663V26.3809V27.8954L44.1319 27.2911C44.518 26.9561 46.718 25.0994 49.0127 23.1552L53.1796 19.6309V18.6771V17.7232L48.3643 13.6528C45.7127 11.4101 43.52 9.56064 43.4835 9.55336C43.4471 9.53879 43.418 10.165 43.418 11.0097Z" fill="#C97562"/>
<path d="M22.1823 13.7693L17.3743 17.8542L17.3525 18.6625L17.3379 19.478L22.2187 23.6066L27.0995 27.7352V26.228V24.7134L23.5299 21.6916L19.9531 18.677L20.1207 18.546C20.2081 18.4732 21.818 17.1115 23.6902 15.5242L27.0995 12.6407V11.1625C27.0995 10.347 27.0776 9.6844 27.0485 9.69168C27.0121 9.69168 24.8266 11.5266 22.1823 13.7693Z" fill="#C97562"/>
<path d="M5.53711 45.7642V51.9171H6.52055H7.504V49.0773V46.2375H9.83512H12.1662V49.0773V51.9171H13.1497H14.1331V45.7642V39.6114H13.1497H12.1662V41.9414V44.2715H9.83512H7.504V41.9414V39.6114H6.52055H5.53711V45.7642Z" fill="#C97562"/>
<path d="M26.1891 45.6696C25.2785 49.0045 24.5136 51.7787 24.4917 51.8297C24.4699 51.9025 24.6811 51.9171 25.497 51.9025L26.5388 51.8807L27.6752 47.8977C28.3017 45.7132 28.8335 43.9002 28.8553 43.8783C28.8772 43.8565 29.5984 45.473 30.458 47.4754L32.0169 51.1161L32.7017 51.1016L33.3937 51.0797L34.9599 47.4608C35.8196 45.4657 36.5407 43.8565 36.5626 43.8783C36.5845 43.9002 37.1162 45.7132 37.7427 47.8977L38.8719 51.8807L39.9136 51.9025C40.7368 51.9171 40.948 51.9025 40.9262 51.8297C40.9043 51.7787 40.1394 49.0045 39.2288 45.6696L37.5606 39.6114H36.8686H36.1692L34.4573 43.6162C33.5176 45.8152 32.7308 47.621 32.709 47.621C32.6871 47.621 31.9003 45.8225 30.9606 43.6162L29.2487 39.6114H28.5494H27.8573L26.1891 45.6696Z" fill="#C97562"/>
<path d="M42.4707 45.7642V51.9171H45.6032H48.7356V50.9705V50.0239H46.5866H44.4376V44.8176V39.6114H43.4541H42.4707V45.7642Z" fill="#C97562"/>
<path d="M15.8809 40.6672V41.6502H17.5928H19.3047V46.7472V51.8443H20.2881H21.2716V46.7472V41.6502H23.0199H24.7683V40.6672V39.6842H20.3246H15.8809V40.6672Z" fill="#C97562"/>
</g>
<defs>
<clipPath id="clip0_311_1322">
<rect width="66" height="80.2421" fill="white"/>
</clipPath>
</defs>
</svg>
