<svg width="101" height="55" viewBox="0 0 101 55" fill="none" xmlns="http://www.w3.org/2000/svg">
<g clip-path="url(#clip0_588_499)">
<path d="M60.9403 0.154705C59.5345 0.524036 58.5026 1.56215 58.1486 2.96959C58.0489 3.36886 58.0489 3.4587 58.0589 27.6497L58.0739 51.9306L58.1785 52.235C58.4029 52.8888 58.692 53.353 59.1706 53.8271C59.4148 54.0767 59.7488 54.3512 59.9034 54.446C60.2922 54.6706 60.9403 54.8902 61.4188 54.9501C61.688 54.985 67.4657 55 79.3101 54.99C96.1147 54.975 96.8226 54.97 97.1316 54.8852C97.9292 54.6556 98.682 54.1765 99.1855 53.5726C99.4696 53.2282 99.8335 52.5195 99.9582 52.0553C100.043 51.7459 100.048 50.6978 100.063 32.441C100.073 18.2817 100.063 13.0962 100.023 12.9514C99.9731 12.7817 99.0858 11.8734 93.7019 6.47322C90.2573 3.0195 87.3759 0.159698 87.3011 0.11977C87.1865 0.0598793 85.3769 0.0498962 74.2403 0.0548897C61.5734 0.0548897 61.3091 0.0548897 60.9403 0.154705ZM86.1745 7.5313L86.1895 13.4705L86.2942 13.6102C86.354 13.6851 86.4736 13.7949 86.5683 13.8498C86.7328 13.9496 86.8375 13.9496 92.6102 13.9646L98.4776 13.9746V19.0903V24.206H79.0359H59.5943V13.9796C59.5943 7.38656 59.6142 3.66333 59.6441 3.48864C59.7239 3.06441 60.0031 2.55035 60.3171 2.2509C60.6063 1.97639 61.0848 1.72186 61.4437 1.65199C61.5634 1.62703 67.1765 1.60707 73.9113 1.60207L86.1646 1.59708L86.1745 7.5313ZM92.5454 7.56124L97.356 12.3775H92.5304H87.7099V7.56124C87.7099 4.91106 87.7149 2.745 87.7249 2.745C87.7299 2.745 89.8983 4.91106 92.5454 7.56124ZM98.4776 33.6887V41.5744H79.0359H59.5943V33.6887V25.8031H79.0359H98.4776V33.6887ZM98.4676 47.4238L98.4527 51.681L98.2682 52.0703C97.9641 52.7092 97.4307 53.1533 96.7578 53.333C96.5534 53.3879 93.4627 53.4029 79.031 53.4029C61.6631 53.4029 61.5484 53.4029 61.2244 53.3031C60.6412 53.1234 60.0978 52.6642 59.8236 52.1202C59.5993 51.681 59.5943 51.5562 59.5943 47.2491V43.1715H79.0359H98.4826L98.4676 47.4238Z" fill="#C97562"/>
<path d="M72.2321 29.4764C72.1773 29.4864 72.0078 29.5213 71.8583 29.5513C71.4894 29.6261 70.8513 29.9306 70.4824 30.2101C69.7895 30.7341 69.266 31.5526 69.0018 32.5159C68.8423 33.0998 68.8423 34.2926 69.0068 34.8516C69.4405 36.3589 70.4475 37.417 71.7885 37.7863C72.3019 37.926 73.1594 37.9061 73.6529 37.7364C74.0816 37.5916 74.5751 37.2922 74.9191 36.9778C75.3029 36.6234 75.2979 36.5535 74.8293 36.0894L74.4555 35.72L74.2012 35.9496C73.4236 36.6533 72.5462 36.818 71.7336 36.4138C70.1035 35.6052 69.5801 33.4991 70.622 31.902C71.1604 31.0685 72.0926 30.5944 72.8952 30.7441C73.284 30.814 73.8224 31.0885 74.1564 31.3879L74.4355 31.6375L74.8692 31.1983L75.3079 30.7591L74.9141 30.3997C74.1713 29.711 73.0347 29.3217 72.2321 29.4764Z" fill="#C97562"/>
<path d="M79.0908 29.5513C78.4477 29.676 77.8495 30.1352 77.5654 30.7141C77.1267 31.6125 77.2812 32.6307 77.9492 33.2046C78.0838 33.3244 78.6571 33.6588 79.2952 33.9882C80.7708 34.7518 80.9602 34.9365 80.8256 35.5254C80.6212 36.4437 79.4547 36.8829 78.692 36.3289C78.4378 36.1443 78.1636 35.735 78.0838 35.4256C78.0489 35.2908 77.9941 35.191 77.9692 35.201C77.9393 35.211 77.6551 35.3058 77.3361 35.4106L76.7578 35.6003L76.9173 36.0045C77.1167 36.5186 77.2912 36.7931 77.6252 37.1225C78.1038 37.5866 78.7568 37.8412 79.4597 37.8412C81.2942 37.8412 82.6202 36.1093 82.017 34.5023C81.9373 34.2777 81.8276 34.1329 81.5584 33.8634C81.2344 33.544 81.1048 33.4641 80.0978 32.9451C78.7967 32.2813 78.6372 32.1515 78.6372 31.7423C78.6372 31.0435 79.2503 30.6393 79.9881 30.8439C80.2324 30.9138 80.6013 31.2432 80.7309 31.5227C80.7907 31.6474 80.8705 31.7423 80.9004 31.7323C81.0001 31.7073 81.9273 31.1184 81.9273 31.0835C81.9273 31.0635 81.8475 30.9138 81.7528 30.7541C81.2095 29.8258 80.1427 29.3416 79.0908 29.5513Z" fill="#C97562"/>
<path d="M86.0894 29.5662C85.5261 29.701 84.9628 30.1052 84.7035 30.5644C84.3695 31.1384 84.2948 31.9419 84.5191 32.5159C84.7384 33.0748 85.1023 33.3543 86.6128 34.113C87.6746 34.647 87.9089 34.8666 87.9089 35.3208C87.9089 35.9346 87.3755 36.4836 86.6976 36.5635C86.0096 36.6434 85.4114 36.2141 85.1622 35.4605C85.1173 35.3257 85.0575 35.2159 85.0375 35.2159C85.0126 35.2209 84.7285 35.3108 84.4094 35.4106L83.8262 35.6002L83.9508 35.9197C84.1452 36.4537 84.3247 36.7382 84.6686 37.0826C85.1921 37.6066 85.7604 37.8362 86.548 37.8412C88.1382 37.8462 89.4493 36.4238 89.205 34.9614C89.1801 34.7967 89.0904 34.5222 89.0056 34.3525C88.7614 33.8584 88.4573 33.6238 87.2708 33.01C85.9947 32.3462 85.8501 32.2513 85.7454 31.9918C85.5909 31.6075 85.8252 31.0685 86.2339 30.8738C86.4832 30.7541 86.887 30.774 87.1861 30.9138C87.4802 31.0485 87.6048 31.1783 87.7943 31.5227L87.9338 31.7772L88.4323 31.4628C88.7065 31.2881 88.9508 31.1384 88.9757 31.1284C89.0754 31.0934 88.6816 30.4845 88.3775 30.2001C87.7494 29.6111 86.887 29.3716 86.0894 29.5662Z" fill="#C97562"/>
<g clip-path="url(#clip1_588_499)">
<path d="M169.332 -952.332C143.49 -945.64 124.453 -926.574 117.832 -900.724C115.993 -893.574 115.993 -891.19 115.993 -708.407V-523.424H92.7256C66.7916 -523.424 65.2282 -523.057 60.9978 -517.007L58.9746 -513.982V-379.14C58.9746 -247.14 58.9746 -244.207 60.8139 -241.365C64.4925 -235.315 65.1362 -235.224 91.622 -234.674L115.533 -234.215L115.993 -118.257C116.544 12.1847 115.901 0.267986 123.901 16.4013C127.396 23.5513 129.603 26.4847 136.133 32.993C148.088 45.0013 161.239 51.7847 177.241 54.0763C185.886 55.268 648.651 55.3597 653.065 54.0763C655.64 53.343 680.102 29.418 772.803 -62.982C839.017 -129.074 889.781 -180.315 890.333 -181.782C891.713 -185.54 891.621 -884.957 890.241 -893.94C887.758 -909.982 881.596 -921.99 869.733 -933.632C859.893 -943.44 849.409 -949.399 836.902 -952.424C829.269 -954.257 826.418 -954.257 502.703 -954.165C181.563 -954.165 176.137 -954.165 169.332 -952.332ZM827.429 -924.832C843.155 -921.99 856.398 -909.799 860.537 -894.307C861.64 -890.365 861.824 -834.082 861.824 -545.24V-200.757H753.674H645.524L642.029 -198.832C640.098 -197.732 637.707 -195.349 636.603 -193.424L634.672 -189.94V-82.1403V25.6597L405.956 25.4763L177.149 25.2013L171.907 23.093C160.687 18.6013 151.307 8.97632 146.985 -2.57368L144.961 -7.79868V-121.007V-234.215L439.248 -234.674C726.636 -235.132 733.626 -235.132 736.109 -236.874C737.58 -237.79 739.511 -240.174 740.523 -242.099C742.27 -245.49 742.27 -248.699 742.27 -379.324V-513.065L740.155 -516.182C739.052 -517.832 736.661 -520.215 735.005 -521.315L731.878 -523.424H438.236H144.502V-704.832C144.502 -821.707 144.869 -887.89 145.421 -891.099C146.893 -898.89 152.043 -908.332 157.836 -913.832C163.17 -918.874 171.999 -923.549 178.62 -924.832C184.874 -926.024 820.716 -926.024 827.429 -924.832ZM712.842 -378.59V-263.09H400.163H87.4836V-378.59V-494.09H400.163H712.842V-378.59ZM840.672 -171.607C840.672 -171.24 800.944 -131.365 752.386 -82.9653L664.101 5.03465V-83.6987V-172.34H752.386C800.944 -172.34 840.672 -172.065 840.672 -171.607Z" fill="black"/>
</g>
</g>
<g clip-path="url(#clip2_588_499)">
<path d="M6.04258 0.15469C4.6395 0.519028 3.60592 1.55714 3.24641 2.96458C3.14655 3.35387 3.14655 3.48364 3.14655 13.4355V23.5072H1.88327C0.475201 23.5072 0.390317 23.5272 0.160631 23.8566L0.0507812 24.0213V31.3629C0.0507812 38.5499 0.0507812 38.7096 0.150645 38.8643C0.350371 39.1937 0.385323 39.1987 1.82336 39.2286L3.12158 39.2536L3.14655 45.5671C3.1765 52.6692 3.14155 52.0204 3.57596 52.8988C3.7657 53.2881 3.88553 53.4478 4.24005 53.8021C4.88916 54.456 5.60318 54.8253 6.47199 54.9501C6.94135 55.0149 32.067 55.0199 32.3066 54.9501C32.4465 54.9101 33.7746 53.6075 38.8078 48.5766C42.4028 44.9782 45.1591 42.1883 45.189 42.1084C45.2639 41.9038 45.2589 3.82302 45.184 3.33391C45.0492 2.4605 44.7147 1.80669 44.0705 1.17284C43.5363 0.638809 42.9671 0.3144 42.288 0.1497C41.8736 0.049881 41.7188 0.049881 24.1428 0.0548744C6.70667 0.0548744 6.41208 0.0548744 6.04258 0.15469ZM41.7737 1.65197C42.6275 1.80669 43.3465 2.47048 43.5712 3.31395C43.6311 3.52856 43.6411 6.59299 43.6411 22.3194V41.0753H37.7692H31.8972L31.7075 41.1801C31.6026 41.24 31.4728 41.3698 31.4129 41.4746L31.308 41.6642V47.5335V53.4029L18.89 53.3929L6.467 53.3779L6.18239 53.2631C5.57322 53.0186 5.06392 52.4945 4.82924 51.8657L4.71939 51.5812V45.4174V39.2536L20.6975 39.2286C36.3012 39.2037 36.6807 39.2037 36.8155 39.1089C36.8954 39.059 37.0002 38.9292 37.0551 38.8244C37.15 38.6397 37.15 38.465 37.15 31.353V24.0712L37.0352 23.9015C36.9753 23.8117 36.8454 23.6819 36.7556 23.622L36.5858 23.5072H20.6426H4.69443V13.6302C4.69443 7.26676 4.7144 3.66331 4.74436 3.48863C4.82425 3.0644 5.10387 2.55033 5.41844 2.25088C5.70804 1.97638 6.18738 1.72184 6.54689 1.65197C6.88643 1.58709 41.4092 1.58709 41.7737 1.65197ZM35.5522 31.3929V37.6815H18.5754H1.59866V31.3929V25.1043H18.5754H35.5522V31.3929ZM42.4927 42.6624C42.4927 42.6824 40.3357 44.8534 37.6993 47.4886L32.9058 52.2799V47.4487V42.6225H37.6993C40.3357 42.6225 42.4927 42.6374 42.4927 42.6624Z" fill="#C97562"/>
<path d="M26.3454 5.75448C26.0158 6.49313 20.1738 20.0685 20.1738 20.0934C20.1738 20.1034 20.5583 20.1084 21.0277 20.1034L21.8815 20.0884L25.0222 12.8017C26.7498 8.79395 28.1629 5.50992 28.1629 5.49994C28.1629 5.49495 27.7784 5.48996 27.3091 5.48996H26.4602L26.3454 5.75448Z" fill="#C97562"/>
<path d="M29.7598 7.54628V8.55944L32.2563 10.6706C33.6295 11.8335 34.7429 12.8017 34.733 12.8217C34.718 12.8417 33.5945 13.7999 32.2364 14.9528L29.7598 17.044V18.0821V19.1202L30.2491 18.706C30.5137 18.4764 32.0217 17.2037 33.5945 15.8711L36.4506 13.4555V12.8017V12.1479L33.1501 9.35799C31.3326 7.82078 29.8297 6.55309 29.8047 6.5481C29.7797 6.53812 29.7598 6.96734 29.7598 7.54628Z" fill="#C97562"/>
<path d="M15.2052 9.43778L11.9097 12.2377L11.8948 12.7917L11.8848 13.3507L15.2302 16.1805L18.5756 19.0104V17.9773V16.9391L16.129 14.8679L13.6773 12.8017L13.7922 12.7118C13.8521 12.6619 14.9556 11.7286 16.2388 10.6406L18.5756 8.66419V7.65103C18.5756 7.09205 18.5606 6.63787 18.5407 6.64286C18.5157 6.64286 17.0177 7.90058 15.2052 9.43778Z" fill="#C97562"/>
<path d="M3.79492 31.3679V35.5853H4.469H5.14308V33.6388V31.6923H6.74089H8.33871V33.6388V35.5853H9.01278H9.68686V31.3679V27.1506H9.01278H8.33871V28.7477V30.3448H6.74089H5.14308V28.7477V27.1506H4.469H3.79492V31.3679Z" fill="#C97562"/>
<path d="M17.9515 31.303C17.3274 33.5889 16.8031 35.4904 16.7881 35.5253C16.7732 35.5753 16.918 35.5852 17.4772 35.5753L18.1912 35.5603L18.9702 32.8302C19.3996 31.333 19.7641 30.0902 19.779 30.0753C19.794 30.0603 20.2883 31.1683 20.8775 32.5408L21.9461 35.0362L22.4154 35.0263L22.8898 35.0113L23.9633 32.5308C24.5525 31.1633 25.0468 30.0603 25.0618 30.0753C25.0768 30.0902 25.4413 31.333 25.8707 32.8302L26.6447 35.5603L27.3587 35.5753C27.9229 35.5852 28.0677 35.5753 28.0527 35.5253C28.0377 35.4904 27.5135 33.5889 26.8893 31.303L25.7459 27.1506H25.2715H24.7922L23.6188 29.8956C22.9747 31.4028 22.4354 32.6406 22.4204 32.6406C22.4055 32.6406 21.8662 31.4078 21.2221 29.8956L20.0487 27.1506H19.5693H19.095L17.9515 31.303Z" fill="#C97562"/>
<path d="M29.1113 31.3679V35.5853H31.2584H33.4055V34.9364V34.2876H31.9325H30.4595V30.7191V27.1506H29.7854H29.1113V31.3679Z" fill="#C97562"/>
<path d="M10.8867 27.8743V28.548H12.0601H13.2335V32.0417V35.5353H13.9076H14.5817V32.0417V28.548H15.78H16.9784V27.8743V27.2005H13.9326H10.8867V27.8743Z" fill="#C97562"/>
</g>
<defs>
<clipPath id="clip0_588_499">
<rect width="42.0737" height="55" fill="white" transform="translate(58)"/>
</clipPath>
<clipPath id="clip1_588_499">
<rect width="833.198" height="1010.17" fill="white" transform="translate(58.0547 -955.174)"/>
</clipPath>
<clipPath id="clip2_588_499">
<rect width="45.2381" height="55" fill="white"/>
</clipPath>
</defs>
</svg>
