<svg width="25" height="25" viewBox="0 0 25 25" fill="none" xmlns="http://www.w3.org/2000/svg">
<g clip-path="url(#clip0_376_758)">
<path d="M7.32302 0.087422C5.99302 0.150172 5.08477 0.362422 4.29077 0.674422C3.46902 0.994672 2.77252 1.42442 2.07952 2.11992C1.38652 2.81542 0.95977 3.51242 0.64177 4.33542C0.33402 5.13117 0.12552 6.04017 0.0667703 7.37092C0.00802028 8.70167 -0.00497973 9.12942 0.00152027 12.5239C0.00802027 15.9184 0.0230203 16.3439 0.0875203 17.6774C0.15102 19.0072 0.36252 19.9152 0.67452 20.7094C0.99527 21.5312 1.42452 22.2274 2.12027 22.9207C2.81602 23.6139 3.51252 24.0397 4.33752 24.3582C5.13252 24.6654 6.04177 24.8749 7.37227 24.9332C8.70277 24.9914 9.13102 25.0049 12.5245 24.9984C15.918 24.9919 16.3453 24.9769 17.6785 24.9137C19.0118 24.8504 19.915 24.6374 20.7095 24.3269C21.5313 24.0054 22.228 23.5769 22.9208 22.8809C23.6135 22.1849 24.04 21.4874 24.3578 20.6639C24.6658 19.8689 24.875 18.9597 24.9328 17.6302C24.991 16.2959 25.0048 15.8699 24.9983 12.4759C24.9918 9.08192 24.9765 8.65642 24.9133 7.32342C24.85 5.99042 24.6383 5.08517 24.3265 4.29042C24.0053 3.46867 23.5765 2.77292 22.881 2.07917C22.1855 1.38542 21.4875 0.959172 20.6643 0.642172C19.8688 0.334422 18.96 0.124672 17.6295 0.067172C16.299 0.00967201 15.8708 -0.00507799 12.476 0.00142201C9.08127 0.00792201 8.65627 0.022422 7.32302 0.087422ZM7.46902 22.6844C6.25027 22.6314 5.58852 22.4289 5.14752 22.2594C4.56352 22.0344 4.14752 21.7624 3.70802 21.3272C3.26852 20.8919 2.99852 20.4744 2.77052 19.8917C2.59927 19.4507 2.39302 18.7897 2.33602 17.5709C2.27402 16.2537 2.26102 15.8582 2.25377 12.5209C2.24652 9.18367 2.25927 8.78867 2.31702 7.47092C2.36902 6.25317 2.57277 5.59067 2.74202 5.14992C2.96702 4.56517 3.23802 4.14992 3.67427 3.71067C4.11052 3.27142 4.52677 3.00092 5.11002 2.77292C5.55052 2.60092 6.21152 2.39642 7.42977 2.33842C8.74802 2.27592 9.14302 2.26342 12.4798 2.25617C15.8165 2.24892 16.2125 2.26142 17.5313 2.31942C18.749 2.37242 19.4118 2.57417 19.852 2.74442C20.4363 2.96942 20.852 3.23967 21.2913 3.67667C21.7305 4.11367 22.0013 4.52842 22.2293 5.11292C22.4015 5.55217 22.606 6.21292 22.6635 7.43192C22.7263 8.75017 22.7405 9.14542 22.7465 12.4819C22.7525 15.8184 22.7408 16.2147 22.683 17.5319C22.6298 18.7507 22.4278 19.4127 22.258 19.8542C22.033 20.4379 21.7618 20.8542 21.3253 21.2932C20.8888 21.7322 20.473 22.0027 19.8895 22.2307C19.4495 22.4024 18.7878 22.6074 17.5705 22.6654C16.2523 22.7274 15.8573 22.7404 12.5193 22.7477C9.18127 22.7549 8.78752 22.7414 7.46927 22.6844M17.6593 5.81917C17.6598 6.11586 17.7482 6.40575 17.9135 6.65216C18.0787 6.89856 18.3134 7.09043 18.5877 7.20349C18.862 7.31655 19.1637 7.34572 19.4545 7.28732C19.7454 7.22892 20.0125 7.08556 20.2219 6.87538C20.4313 6.6652 20.5737 6.39765 20.631 6.10655C20.6883 5.81545 20.6581 5.51388 20.544 5.23999C20.4299 4.9661 20.2372 4.73219 19.9902 4.56784C19.7432 4.40349 19.453 4.31608 19.1563 4.31667C18.7585 4.31747 18.3774 4.4762 18.0967 4.75796C17.8159 5.03971 17.6586 5.42143 17.6593 5.81917ZM6.08177 12.5124C6.08877 16.0574 8.96777 18.9247 12.512 18.9179C16.0563 18.9112 18.9255 16.0324 18.9188 12.4874C18.912 8.94242 16.0323 6.07442 12.4875 6.08142C8.94277 6.08842 6.07502 8.96792 6.08177 12.5124ZM8.33327 12.5079C8.33164 11.6838 8.57442 10.8777 9.03091 10.1916C9.48741 9.50549 10.1371 8.97015 10.8979 8.65327C11.6586 8.33639 12.4962 8.25222 13.3048 8.41139C14.1134 8.57057 14.8566 8.96594 15.4405 9.54751C16.0244 10.1291 16.4227 10.8707 16.5851 11.6787C16.7475 12.4866 16.6666 13.3246 16.3527 14.0866C16.0389 14.8486 15.5061 15.5004 14.8218 15.9596C14.1375 16.4188 13.3324 16.6648 12.5083 16.6664C11.9611 16.6676 11.419 16.5609 10.913 16.3525C10.407 16.1442 9.94707 15.8382 9.55937 15.452C9.17167 15.0658 8.86384 14.6071 8.65347 14.1019C8.44309 13.5968 8.33429 13.0551 8.33327 12.5079Z" fill="#414546"/>
</g>
<defs>
<clipPath id="clip0_376_758">
<rect width="25" height="25" fill="white"/>
</clipPath>
</defs>
</svg>
