<svg width="62" height="80" viewBox="0 0 62 80" fill="none" xmlns="http://www.w3.org/2000/svg">
<g clip-path="url(#clip0_315_1476)">
<path d="M4.2832 0.225014C2.23601 0.762222 0.733291 2.2722 0.217865 4.31939C0.0726741 4.90015 0.0726741 5.03082 0.0871931 40.2178L0.108972 75.5354L0.261422 75.9782C0.588101 76.9292 1.00915 77.6043 1.70607 78.294C2.06178 78.657 2.54817 79.0562 2.77322 79.1942C3.33946 79.5208 4.2832 79.8403 4.98011 79.9274C5.37213 79.9782 13.7859 80 31.0346 79.9855C55.5064 79.9637 56.5373 79.9564 56.9874 79.833C58.1489 79.4991 59.2451 78.8021 59.9783 77.9237C60.3921 77.4228 60.922 76.392 61.1035 75.7168C61.2269 75.2668 61.2342 73.7423 61.256 47.1869C61.2705 26.5916 61.256 19.049 61.1979 18.8384C61.1253 18.5916 59.8331 17.2704 51.9928 9.41558C46.9765 4.39198 42.7805 0.232277 42.6716 0.174202C42.5046 0.0870819 39.8694 0.0725632 23.6516 0.0798264C5.20516 0.0798264 4.82041 0.0798264 4.2832 0.225014ZM41.0309 10.9546L41.0527 19.5934L41.2052 19.7967C41.2923 19.9056 41.4665 20.0653 41.6044 20.1452C41.844 20.2904 41.9964 20.2904 50.403 20.3121L58.9474 20.3266V27.7677V35.2087H30.6353H2.32313V20.3339C2.32313 10.7441 2.35217 5.32846 2.39572 5.07438C2.51188 4.45732 2.91841 3.70959 3.37576 3.27402C3.79681 2.87474 4.49373 2.50451 5.01641 2.40288C5.19064 2.36658 13.3649 2.33754 23.1725 2.33028L41.0164 2.32302L41.0309 10.9546ZM50.3086 10.9982L57.3141 18.0036H50.2868H43.2669V10.9982C43.2669 7.14335 43.2741 3.99271 43.2886 3.99271C43.2959 3.99271 46.4538 7.14335 50.3086 10.9982ZM58.9474 49.0018V60.4718H30.6353H2.32313V49.0018V37.5317H30.6353H58.9474V49.0018ZM58.9329 68.98L58.9111 75.1724L58.6425 75.7386C58.1997 76.6678 57.4229 77.3139 56.4429 77.5753C56.1453 77.6551 51.6444 77.6769 30.628 77.6769C5.33583 77.6769 5.16886 77.6769 4.69699 77.5317C3.84763 77.2704 3.05634 76.6025 2.65707 75.8112C2.33039 75.1724 2.32313 74.9909 2.32313 68.7259V62.7949H30.6353H58.9547L58.9329 68.98Z" fill="#6D807E"/>
<path d="M33.975 42.882C33.6701 42.9255 32.9369 43.2087 32.6683 43.3756C32.3126 43.6007 31.7682 44.2032 31.5721 44.5807C31.2164 45.2849 31.1075 46.3666 31.3253 47.078C31.4633 47.5571 31.8916 48.1524 32.2981 48.45C32.4796 48.588 33.2999 49.0453 34.113 49.4664C34.926 49.8874 35.7028 50.323 35.8407 50.4246C36.4142 50.8602 36.5231 51.4482 36.1674 52.1306C35.6593 53.1107 34.4251 53.4736 33.4451 52.9364C32.9369 52.6678 32.4723 52.0217 32.3417 51.4119C32.3199 51.2885 32.2763 51.1796 32.2545 51.1796C32.1602 51.1796 30.5195 51.7168 30.4614 51.7676C30.3598 51.8548 30.7591 52.8783 31.0858 53.3647C31.6157 54.156 32.4578 54.7586 33.358 54.9981C33.9242 55.1506 34.9623 55.1288 35.5431 54.9473C37.7863 54.2649 38.9769 51.8911 38.0404 49.9673C37.6774 49.2341 37.2055 48.8638 35.4923 47.9927C33.779 47.1143 33.4378 46.9038 33.2781 46.5916C33.0023 46.0617 33.3217 45.2341 33.917 44.9437C34.7591 44.5372 35.7536 44.9509 36.24 45.9092C36.3199 46.0689 36.3997 46.2141 36.407 46.2286C36.4288 46.2577 37.8226 45.3865 37.9533 45.2631C38.0331 45.1905 37.9968 45.0889 37.779 44.7114C37.0023 43.3829 35.4633 42.6424 33.975 42.882Z" fill="#6D807E"/>
<path d="M25.9749 47.8548C25.9604 51.6515 25.9314 52.8493 25.866 52.9728C25.6119 53.4083 25.053 53.176 24.6972 52.4791C24.5666 52.225 24.4286 52.0218 24.3851 52.0363C24.298 52.0581 22.9404 53.0744 22.9404 53.1179C22.9404 53.1325 23.0421 53.343 23.1655 53.5826C23.6228 54.4973 24.3197 54.9619 25.3143 55.0127C26.3669 55.0635 27.1364 54.686 27.5285 53.9165C27.8551 53.2631 27.8769 52.9655 27.8769 47.7822V42.9038H26.9332H25.9967L25.9749 47.8548Z" fill="#6D807E"/>
</g>
<defs>
<clipPath id="clip0_315_1476">
<rect width="61.2704" height="80" fill="white"/>
</clipPath>
</defs>
</svg>
