<svg width="24" height="19" viewBox="0 0 24 19" fill="none" xmlns="http://www.w3.org/2000/svg">
<path d="M0.0619202 2.68186C0.170109 2.13689 0.411751 1.63819 0.749205 1.22621C0.82036 1.13644 0.894705 1.05605 0.975283 0.975658C1.57318 0.374813 2.41233 0 3.32907 0H20.6709C21.5876 0 22.4238 0.374813 23.0245 0.975658C23.1049 1.05605 23.1792 1.13644 23.2506 1.22621C23.5882 1.63814 23.8298 2.13689 23.935 2.68186C23.9782 2.89219 24 3.10955 24 3.3293V15.509C24 15.9762 23.9009 16.4254 23.7242 16.831C23.5603 17.2182 23.3186 17.5685 23.0245 17.8623C22.95 17.9367 22.876 18.005 22.7952 18.073C22.2193 18.5499 21.4759 18.838 20.6709 18.838H3.32907C2.52375 18.838 1.77713 18.5499 1.20455 18.07C1.12402 18.005 1.04963 17.9367 0.975283 17.8623C0.681376 17.5685 0.439734 17.2182 0.272436 16.831V16.828C0.0957642 16.4224 0 15.9762 0 15.509V3.3293C-4.76837e-05 3.10955 0.0213737 2.89219 0.0619202 2.68186ZM21.8199 2.18011C21.5225 1.88302 21.123 1.70316 20.6709 1.70316H3.32907C2.87691 1.70316 2.47397 1.88302 2.18007 2.18011C2.12747 2.23304 2.07792 2.292 2.03419 2.3506L11.1236 10.2723C11.3743 10.492 11.6839 10.6005 12 10.6005C12.3128 10.6005 12.6223 10.492 12.8763 10.2723L21.9622 2.34722C21.922 2.28863 21.8725 2.23304 21.8199 2.18011ZM22.2968 15.509V4.10968L15.7191 9.84789L22.2935 15.58C22.2968 15.5583 22.2968 15.5338 22.2968 15.509ZM3.32907 17.1345H20.6709C20.9653 17.1345 21.2408 17.0571 21.4759 16.9211L14.5394 10.8761L13.8919 11.4395C13.3499 11.9104 12.6718 12.1489 12 12.1489C11.3247 12.1489 10.6466 11.9104 10.1047 11.4395L9.45747 10.8761L2.52371 16.9211C2.75916 17.0571 3.03465 17.1345 3.32907 17.1345ZM1.70311 15.509C1.70311 15.5338 1.70311 15.5583 1.7063 15.58L8.28062 9.85122L1.70311 4.11273V15.509Z" fill="#FDFDFD"/>
</svg>
