<svg width="23" height="24" viewBox="0 0 23 24" fill="none" xmlns="http://www.w3.org/2000/svg">
<path d="M19.5962 12.5623C19.5931 12.5358 19.5905 12.51 19.5855 12.4842L19.6334 12.4644L19.5187 12.2871C19.4973 12.2433 19.4722 12.2006 19.4419 12.1604C19.4413 12.1556 19.4407 12.1514 19.44 12.1459C19.4306 12.0846 19.4274 11.9999 19.4274 11.8972C19.4274 11.7644 19.4337 11.6088 19.4406 11.434C19.4495 11.2111 19.4595 10.9593 19.4595 10.6878C19.4595 10.1584 19.4255 9.35519 19.1295 8.49602C18.8222 7.59659 18.2788 6.79272 17.5149 6.10839C16.7164 5.39042 15.7328 4.86832 14.5854 4.55229C14.6773 4.32277 14.7252 4.07826 14.7252 3.8277C14.7252 2.7096 13.7718 1.79999 12.5999 1.79999C12.0842 1.79999 11.5968 1.97902 11.2126 2.29986C10.8298 1.97902 10.3411 1.79999 9.8247 1.79999C8.65403 1.8006 7.70063 2.71022 7.69939 3.8277C7.69939 4.07826 7.74662 4.32277 7.8398 4.55287C6.69243 4.86829 5.7088 5.39038 4.91029 6.10778C4.14704 6.79272 3.60295 7.59598 3.29565 8.49598C2.99967 9.35515 2.96565 10.1584 2.96565 10.6889C2.96565 10.9611 2.97573 11.2134 2.98455 11.4369C2.99148 11.61 2.99777 11.7644 2.99777 11.8972C2.99777 12.0342 2.98959 12.1219 2.98834 12.1537C2.89766 12.2745 2.84289 12.4144 2.82902 12.5623C2.16278 13.2958 1.7251 14.1442 1.7251 15.7604C1.72518 19.3466 5.2718 21.4873 11.2126 21.4873C17.1535 21.4873 20.7001 19.3466 20.7001 15.7604C20.7001 14.1442 20.2625 13.2959 19.5962 12.5623ZM14.195 4.56309C14.1598 4.637 14.1182 4.7079 14.0729 4.77577C14.071 4.77516 14.0691 4.77458 14.0678 4.77458C14.1151 4.70729 14.1573 4.637 14.195 4.56309ZM12.5999 3.1518C12.991 3.15241 13.3078 3.45522 13.3084 3.8277C13.3077 4.20142 12.9916 4.50303 12.5999 4.50361C12.2101 4.50299 11.8921 4.2008 11.8915 3.8277C11.8921 3.45584 12.2101 3.15241 12.5999 3.1518ZM9.82474 3.1518C10.2158 3.15241 10.5326 3.45522 10.5332 3.8277C10.5325 4.20142 10.2164 4.50303 9.82474 4.50361C9.43429 4.50299 9.11691 4.2008 9.1163 3.8277C9.11691 3.45584 9.43429 3.15241 9.82474 3.1518ZM8.35745 4.77458C8.3562 4.77458 8.35366 4.77519 8.35241 4.77577C8.30707 4.70787 8.26552 4.637 8.23025 4.56309C8.26805 4.637 8.31021 4.70729 8.35745 4.77458ZM4.64207 8.91718C4.85241 8.30795 5.21639 7.69153 5.88138 7.09253C6.65974 6.39317 7.57473 6.00084 8.51112 5.78036C9.4469 5.55988 10.3984 5.5172 11.2126 5.51781C12.0275 5.5172 12.9784 5.55988 13.9142 5.78036C14.8505 6.00084 15.7643 6.39321 16.5439 7.09253C17.2089 7.69153 17.5729 8.30795 17.7832 8.91718C17.9935 9.52641 18.0427 10.132 18.0427 10.6884C18.0439 10.9605 18.0326 11.2141 18.0238 11.4574C17.6359 11.0122 17.2593 10.4625 16.9431 9.68141C15.9809 7.29978 14.2687 6.51875 11.2126 6.51875C8.1565 6.51875 6.44428 7.29982 5.48206 9.68141C5.16726 10.4631 4.78942 11.0128 4.40151 11.4574C4.39268 11.2141 4.38136 10.9611 4.38261 10.6883C4.38261 10.1326 4.43174 9.52641 4.64207 8.91718ZM11.2126 20.1355C9.31906 20.1355 3.14205 19.8195 3.14205 15.7604C3.14205 14.1532 3.6194 13.6954 4.40909 12.9366C5.0615 12.3106 5.87509 11.5307 6.47395 10.0455C7.23276 8.16676 8.42862 7.53288 11.2126 7.53288C13.9973 7.53288 15.1925 8.16672 15.9513 10.0455C16.5515 11.5307 17.3638 12.3105 18.0162 12.9366C18.8059 13.6954 19.2832 14.1532 19.2832 15.7604C19.2832 19.8195 13.1056 20.1355 11.2126 20.1355Z" fill="#414546"/>
</svg>
