<svg width="23" height="24" viewBox="0 0 23 24" fill="none" xmlns="http://www.w3.org/2000/svg">
<path d="M16.1753 9.01621C17.9262 9.01621 19.3456 7.5353 19.3456 5.70814C19.3456 3.88098 17.9262 2.40002 16.1753 2.40002C14.4243 2.40002 13.0049 3.88093 13.0049 5.7081C13.0049 7.53526 14.4242 9.01621 16.1753 9.01621Z" fill="#414546"/>
<path d="M21.2749 19.6602H1.1499V21.8463H21.2749V19.6602Z" fill="#414546"/>
<path d="M15.2101 19.0849H19.5934V13.4465C19.5934 11.4767 18.0629 9.87927 16.175 9.87927C14.2869 9.87927 12.7563 11.4767 12.7563 13.4465V16.7833H15.21L15.2101 19.0849Z" fill="#414546"/>
<path d="M6.15863 19.0849H11.4425H14.6587V17.3586H10.682L9.00727 12.6121H1.19629L3.63137 19.0849H6.15863Z" fill="#414546"/>
</svg>
