<svg width="24" height="24" viewBox="0 0 24 24" fill="none" xmlns="http://www.w3.org/2000/svg">
<path d="M3.74037 15.6872H19.6595C20.2671 15.6872 20.7599 15.1722 20.7599 14.5374V4.74912C20.7599 4.11495 20.2671 3.59998 19.6595 3.59998H3.74037C3.13281 3.59998 2.64062 4.11495 2.64062 4.74912V14.5374C2.64062 15.1722 3.13281 15.6872 3.74037 15.6872ZM4.32226 5.14422H19.0776V13.8725H4.32226V5.14422Z" fill="#414546"/>
<path d="M22.0374 18.8767L20.075 17.0566C19.9488 16.9401 19.7674 16.8738 19.5758 16.8738H3.82453C3.63291 16.8738 3.45154 16.9401 3.32529 17.0566L1.36299 18.8767C1.25786 18.9739 1.2002 19.0991 1.2002 19.2283V19.8625C1.2002 20.0105 1.34822 20.1297 1.5309 20.1297H21.8695C22.0528 20.1297 22.2002 20.0105 22.2002 19.8625V19.2283C22.2002 19.0991 22.1425 18.9739 22.0374 18.8767ZM9.4501 19.0917L10.0179 18.2895H13.6164L14.1835 19.0917H9.4501Z" fill="#414546"/>
</svg>
