<svg width="23" height="24" viewBox="0 0 23 24" fill="none" xmlns="http://www.w3.org/2000/svg">
<path d="M6.5357 17.3568C6.53509 17.3568 6.53449 17.3568 6.53393 17.3571L6.23047 17.4636L6.5357 17.3568Z" fill="#414546"/>
<path d="M4.73779 14.4408V14.4424C4.73779 14.4424 4.73779 14.4424 4.73938 14.4424L4.73779 14.4408Z" fill="#414546"/>
<path d="M15.3588 16.8143C24.4999 9.82842 17.0682 -2.79965 8.51183 2.43975C6.2303 2.84252 3.83441 4.32059 4.40501 6.73891C4.46745 7.00385 4.58182 7.2532 4.72948 7.48529C4.5782 7.91939 4.50074 8.34384 4.50018 8.73656C4.50018 8.8675 4.50887 8.99432 4.52659 9.11744C4.5788 9.47703 4.60613 9.77956 4.60613 10.0433C4.60613 10.0803 4.60525 10.116 4.60404 10.1517C4.26786 10.2738 3.80921 10.4035 3.4502 10.3659C3.4502 10.3659 3.86863 10.7145 4.50288 10.8147C4.47888 10.8946 4.45038 10.9729 4.41677 11.0521C4.28529 11.3603 4.07156 11.6801 3.74472 12.0704C3.65615 12.1756 3.58771 12.2827 3.54061 12.3943C3.49319 12.5058 3.46799 12.6229 3.46855 12.7366C3.46799 12.8713 3.5037 12.9956 3.5547 13.0971C3.63216 13.2506 3.73751 13.3561 3.83356 13.437C3.92784 13.5156 4.01754 13.5707 4.07458 13.607C4.08058 13.6111 4.10973 13.6515 4.12861 13.7066C4.1493 13.7621 4.16162 13.8313 4.16129 13.8851C4.16162 13.9203 4.1565 13.9484 4.15139 13.9641L4.14539 13.9791L4.14447 13.9804L4.14539 13.9795V13.9797L4.14447 13.9804L4.14419 13.9808C4.09495 14.0331 4.05055 14.0906 4.01689 14.1602C3.98267 14.2291 3.96077 14.3124 3.9611 14.3964C3.96077 14.4947 3.99052 14.5843 4.0268 14.6501C4.08263 14.7503 4.14684 14.8101 4.20272 14.86C4.21769 14.8731 4.23122 14.8831 4.24503 14.8947C4.24052 14.9076 4.23601 14.9214 4.23062 14.9361C4.21862 14.9709 4.20481 15.01 4.19282 15.057C4.1811 15.1037 4.16971 15.1582 4.1691 15.2283C4.1691 15.2872 4.17901 15.3604 4.21351 15.4353C4.24712 15.5102 4.3069 15.5778 4.37083 15.6195L4.38464 15.6286L4.37204 15.6204C4.45308 15.6762 4.47949 15.7181 4.50288 15.7714C4.52453 15.8247 4.53593 15.9004 4.53532 15.9991C4.53621 16.1197 4.51793 16.2653 4.51701 16.4297C4.51701 16.4799 4.51914 16.5319 4.52574 16.5867L4.52482 16.5785L4.52574 16.5873V16.5876C4.53713 16.6828 4.56145 16.7868 4.60585 16.8939C4.6722 17.0536 4.78959 17.2215 4.96966 17.3418C5.14944 17.4633 5.38205 17.5316 5.65491 17.531C5.90583 17.5304 6.19367 17.4761 6.5338 17.3571L6.53589 17.3562C6.80574 17.2616 7.03959 17.2215 7.24365 17.2215C7.53153 17.2228 7.76112 17.2976 7.96949 17.4301C8.12496 17.5297 8.26811 17.665 8.4002 17.8311C8.59858 18.08 8.77032 18.3992 8.91766 18.7513C9.06564 19.1043 9.18963 19.4889 9.30034 19.8682C9.37119 20.1094 9.3997 20.3327 9.3997 20.5394C9.3997 21.0465 9.22683 21.4643 9.04882 21.7606C8.96057 21.9075 8.8714 22.0231 8.80659 22.0989C8.7739 22.1374 8.74745 22.1659 8.72974 22.1841L8.71082 22.2028L8.7078 22.2057L8.70724 22.2066L8.83207 22.351L9.13585 22.7077C9.15115 22.6927 9.37148 22.4872 9.59418 22.1177C9.81632 21.7484 10.0432 21.2081 10.0432 20.5394C10.0432 20.2678 10.0054 19.976 9.91595 19.6715C9.71125 18.9762 9.46032 18.2273 9.05566 17.6218C8.85276 17.3199 8.60844 17.0518 8.30615 16.8576C8.00447 16.6634 7.64457 16.5487 7.24357 16.55C6.95904 16.55 6.65465 16.6057 6.3299 16.7201L6.33022 16.7198C6.03787 16.8225 5.81513 16.8595 5.65487 16.8588C5.5378 16.8588 5.45439 16.8407 5.39433 16.8168C5.30455 16.7799 5.26075 16.7354 5.22533 16.6821C5.19111 16.6292 5.17102 16.5619 5.1641 16.5042C5.162 16.4851 5.16051 16.4604 5.16051 16.4297C5.15963 16.3282 5.17855 16.1766 5.17911 15.999C5.17883 15.854 5.1653 15.6858 5.09659 15.5126C5.04554 15.3817 4.95911 15.2545 4.84144 15.1486C4.84534 15.1374 4.84925 15.1261 4.85376 15.1132C4.86607 15.0782 4.87956 15.0384 4.89188 14.9911C4.90359 14.9438 4.9147 14.8887 4.91499 14.8188C4.91499 14.7627 4.90657 14.6945 4.87682 14.6237C4.84832 14.5535 4.79699 14.4862 4.73753 14.4411C4.70903 14.4188 4.68351 14.3991 4.6604 14.3813C4.70726 14.3151 4.74087 14.2441 4.76277 14.1739C4.79341 14.0762 4.8048 13.9794 4.80508 13.8851C4.80452 13.7191 4.76998 13.5606 4.70996 13.4156C4.67936 13.3426 4.6418 13.2737 4.59438 13.2089C4.54639 13.1441 4.48782 13.0829 4.40976 13.0334H4.41008C4.37196 13.01 4.33174 12.9843 4.29213 12.9561C4.23271 12.9141 4.17836 12.8646 4.14833 12.8236C4.13303 12.8029 4.12374 12.7854 4.11862 12.7719C4.11383 12.7581 4.11206 12.7494 4.11206 12.7365C4.11206 12.7228 4.11415 12.7018 4.12945 12.6655C4.14475 12.6291 4.17478 12.5771 4.22881 12.5126C4.57759 12.0961 4.83483 11.7233 5.00476 11.3252C5.17553 10.9271 5.25089 10.5099 5.24996 10.0432C5.24964 9.73193 5.21816 9.39646 5.16325 9.01684C5.15033 8.93009 5.14373 8.83612 5.14373 8.73652C5.14373 8.54173 5.17046 8.32435 5.22416 8.09415C6.15168 9.02843 7.48531 9.55965 7.48531 9.55965L7.8275 7.00729C7.8275 7.00729 8.15946 11.998 10.0805 14.5303C11.0023 15.7452 11.9784 16.3682 12.8378 16.6739C12.8213 16.781 12.812 16.9007 12.812 17.0354C12.8126 17.5973 12.968 18.4085 13.4651 19.3895C13.783 20.0146 14.2257 20.4795 14.588 20.7927C14.9509 21.1059 15.2358 21.2669 15.249 21.2744L15.505 20.7802L15.5554 20.6837C15.5524 20.6824 15.2988 20.5365 14.983 20.2621C14.6672 19.9875 14.2917 19.584 14.0342 19.0751C13.5797 18.1802 13.4551 17.4683 13.4554 17.0354C13.4554 16.965 13.4591 16.9033 13.4644 16.8491C14.5694 17.0761 15.3588 16.8143 15.3588 16.8143Z" fill="#414546"/>
</svg>
