<svg width="23" height="24" viewBox="0 0 23 24" fill="none" xmlns="http://www.w3.org/2000/svg">
<path d="M17.7376 1.25495C13.5447 1.86995 9.53051 10.2318 7.55474 14.1019C7.05787 15.0753 7.92509 15.5813 8.43607 14.6503C8.80335 13.9811 9.69816 12.0389 10.1821 12.1394C12.4932 12.5488 13.7258 10.9466 12.8507 9.93862C15.7907 10.0026 17.2481 8.28364 16.414 7.23907C17.2911 7.53418 18.5789 7.49106 19.7066 6.83757C22.1135 5.44173 21.9679 0.634721 17.7376 1.25495Z" fill="#414546"/>
<path d="M17.2336 9.65462C16.8516 10.0366 16.1711 10.5797 15.6005 10.8167V19.4684C15.5999 19.661 15.5305 19.8249 15.4126 19.9515C15.2935 20.0769 15.1393 20.1507 14.9587 20.1513H3.71896C3.53839 20.1506 3.38364 20.0769 3.26447 19.9515C3.14655 19.8249 3.07713 19.661 3.07654 19.4684V7.5211C3.07717 7.32915 3.14655 7.16465 3.26447 7.03796C3.3836 6.91261 3.53839 6.83882 3.71896 6.8382H10.0233C10.4649 6.12266 10.9169 5.43521 11.3788 4.79016H3.71896C3.01267 4.78949 2.36412 5.09702 1.90227 5.58993C1.4392 6.08088 1.14931 6.7703 1.1499 7.5211V19.4684C1.14927 20.2192 1.43916 20.9086 1.90227 21.4002C2.36412 21.8924 3.01267 22.2006 3.71896 22.2H14.9587C15.6644 22.2006 16.3129 21.8925 16.7754 21.4002C17.2385 20.9086 17.5284 20.2192 17.5278 19.4684V9.61154C17.5278 9.61154 17.4228 9.4653 17.2336 9.65462Z" fill="#414546"/>
</svg>
