<svg width="24" height="17" viewBox="0 0 24 17" fill="none" xmlns="http://www.w3.org/2000/svg">
<path d="M10.0406 11.3196C9.25027 10.4568 10.8887 4.7724 1.269 0.893441C-0.313052 1.18055 -2.09142 9.17505 7.2559 11.6206C10.0501 13.0174 9.60995 15.3458 9.60995 16.64H11.4073C11.4073 16.64 10.672 12.5347 13.9562 11.0303C16.1909 10.0071 22.3623 9.67896 24 0.457639C20.8776 -1.34777 9.78864 2.17155 10.0406 11.3196ZM7.77369 9.76394C7.58323 9.8958 7.32176 9.84818 7.18995 9.65772C6.27512 8.33274 3.74534 5.27561 2.62689 4.16011C2.46283 3.99679 2.46283 3.73091 2.62689 3.56755C2.79021 3.40349 3.05608 3.40349 3.21944 3.56755C4.40746 4.75777 6.90799 7.77975 7.87991 9.18016C8.01172 9.37061 7.96414 9.63208 7.77369 9.76394ZM19.4984 2.96037C16.4398 4.89324 13.94 8.10938 12.8128 9.8562C12.6876 10.0503 12.4275 10.1059 12.2335 9.9807C12.0394 9.8547 11.9837 9.59543 12.1097 9.40061C13.2882 7.58343 15.8195 4.30214 19.0495 2.25208C19.245 2.12758 19.5036 2.18618 19.6281 2.38174C19.7519 2.57731 19.694 2.83587 19.4984 2.96037Z" fill="#414546"/>
</svg>
