<svg width="124" height="80" viewBox="0 0 124 80" fill="none" xmlns="http://www.w3.org/2000/svg">
<g clip-path="url(#clip0_311_1372)">
<path d="M5.31452 0.123589C2.94374 0.516846 0.831377 2.50561 0.280815 4.85393C0.134748 5.4719 0.112276 8.77528 0.112276 29.3258C0.112276 55.5169 0.0560959 53.6292 0.808905 55.1685C1.28082 56.1461 2.50553 57.3708 3.48306 57.8427C4.99992 58.5843 3.86508 58.5393 22.2696 58.5393H38.9887V61.4944C38.9887 64.0787 38.955 64.573 38.764 65.3258C38.1235 67.8315 36.1909 69.7978 33.6741 70.5281C33.292 70.6404 32.2583 70.7191 30.7303 70.7753C28.4718 70.8427 28.337 70.8652 27.6853 71.1685C26.8201 71.5618 25.955 72.427 25.5392 73.3146C25.2471 73.9438 25.2246 74.0899 25.2246 75.3933C25.2246 76.7528 25.2359 76.8315 25.5954 77.5506C26.0449 78.4719 26.9325 79.3146 27.8426 79.6854L28.4831 79.9438L46.101 79.9775L63.7303 80L63.1797 79.3933C62.8763 79.0449 62.3932 78.3708 62.0898 77.8652L61.5617 76.9663H45.2808H29.0112L28.6628 76.6854C27.8538 76 27.9437 74.3483 28.8314 73.9551C29.0336 73.8539 33.2134 73.8202 44.91 73.8202H60.7078L60.6291 73.236C60.5954 72.9101 60.5617 72.1124 60.5617 71.4494V70.2697L60.0336 70.0112C58.573 69.3034 57.3932 68.1573 56.6741 66.7191C56.0336 65.4494 55.955 64.9101 55.955 61.5393V58.5393H58.2583H60.5617V57.0225V55.5056H33.0673C6.56171 55.5056 5.55048 55.4944 5.10104 55.2921C4.48306 55.0112 3.87632 54.4494 3.50553 53.8315C3.20216 53.3146 3.20216 53.2921 3.16846 50.9213L3.13475 48.5393H31.8426H60.5617V47.0225V45.5056H31.8538H3.14598V25.5281V5.56179L3.41565 4.98875C3.74149 4.28089 4.3707 3.64044 5.04486 3.32584L5.56171 3.08988L47.2471 3.05618C94.528 3.0337 89.6853 2.92134 90.7864 4.02247C91.8201 5.06741 91.7977 4.89887 91.7977 11.0337V16.2921H93.3145H94.8314V11.0337C94.8314 6.92134 94.7977 5.61797 94.6628 5.0337C94.1909 2.77528 92.5842 1.05618 90.2246 0.258423C89.6291 0.0674057 88.1235 0.0561752 47.7527 0.0449371C24.1123 0.033699 5.64037 0.0674057 5.31452 0.123589ZM52.9437 61.9326C52.9887 65.2697 52.9999 65.3595 53.3033 66.3483C53.6965 67.6404 54.3819 68.9551 55.1797 69.9438L55.8201 70.7303L47.4943 70.764C42.9213 70.7753 39.1572 70.764 39.1235 70.7303C39.101 70.7079 39.3033 70.427 39.5954 70.1124C40.528 69.0674 41.2359 67.6966 41.719 66.0112C41.91 65.3258 41.9437 64.7753 41.9887 61.8764L42.0449 58.5393H47.4718H52.8988L52.9437 61.9326Z" fill="#C97562"/>
<path d="M70.247 19C67.2919 19.382 64.82 21.4382 63.8425 24.3259L63.5391 25.2247L63.5054 49.1236C63.4717 75.9663 63.4043 73.8427 64.3369 75.7304C64.7638 76.5955 65.0335 76.9663 65.7863 77.7079C66.5391 78.4719 66.8874 78.7191 67.7638 79.1349C69.629 80.0337 68.9661 80 82.82 80H95.0897L94.6402 79.5169C94.0672 78.8989 93.3144 77.7753 92.9773 77.045L92.6964 76.4607L81.3818 76.4045L70.056 76.3483L69.4942 76.0674C68.7751 75.7191 67.7526 74.6966 67.438 74.0113C67.2919 73.7191 67.1346 73.0787 67.0672 72.6068C66.9998 72.045 66.9661 63.854 66.9885 48.8202L67.0223 25.8989L67.2807 25.2472C67.8088 23.9663 68.82 23.0225 70.1009 22.6517C70.6515 22.4944 72.4043 22.4719 86.4717 22.4719C101.483 22.4719 102.258 22.4832 102.899 22.6742C104.944 23.3146 105.955 24.9438 105.955 27.6068V28.427H107.696H109.438V27.1236C109.438 25.5393 109.225 24.5169 108.651 23.3146C107.674 21.2809 105.91 19.8427 103.539 19.1348C102.91 18.9551 101.842 18.9326 86.9099 18.9214C78.1346 18.9101 70.629 18.9438 70.247 19Z" fill="#C97562"/>
<path d="M101.056 31.3483C98.2248 31.764 95.8765 33.8876 95.0899 36.7416C94.8989 37.427 94.8877 38.5281 94.8877 55.7303V73.9888L95.1911 74.8876C95.854 76.8315 97.2023 78.4045 98.9214 79.2247C100.528 80 100.483 80 109.214 80C117.989 80 117.91 80 119.551 79.2022C120.832 78.573 122.124 77.3034 122.719 76.0674C123.539 74.3933 123.483 75.8652 123.483 55.6629C123.483 35.4157 123.528 36.7865 122.697 35.1798C121.641 33.1461 119.809 31.809 117.528 31.3933C116.876 31.2809 115.011 31.2472 109.157 31.2584C105.023 31.2584 101.371 31.3034 101.056 31.3483ZM117.775 35.1348C118.517 35.4719 119.27 36.2135 119.629 36.9551L119.944 37.5843V55.618V73.6517L119.641 74.2809C119.27 75.0337 118.562 75.7528 117.865 76.1011L117.36 76.3483H109.214H101.067L100.517 76.0787C99.809 75.7303 99.1911 75.1124 98.7978 74.3596L98.4832 73.764L98.4495 55.9101C98.4158 36.1798 98.3821 37.3708 99.1349 36.3933C99.6405 35.7303 100.225 35.2809 100.921 35.0449C101.483 34.8427 101.989 34.8427 109.382 34.8652C117.18 34.8876 117.247 34.8876 117.775 35.1348Z" fill="#C97562"/>
<path d="M105.651 36.9776C105.146 37.1236 104.943 37.4719 104.943 38.1798C104.943 38.6967 104.988 38.8315 105.269 39.1124L105.595 39.4382H107.584C108.786 39.4382 109.651 39.3933 109.797 39.3146C110.056 39.1686 110.337 38.5618 110.337 38.1236C110.337 37.618 109.955 37.1124 109.471 36.9776C108.955 36.8315 106.157 36.8315 105.651 36.9776Z" fill="#C97562"/>
<path d="M111.337 37.2922C111.022 37.6068 110.955 37.8315 111.011 38.427C111.067 39.045 111.562 39.4382 112.314 39.4382C112.921 39.4382 113.483 38.8427 113.483 38.2023C113.483 37.8203 113.416 37.663 113.101 37.3483C112.775 37.0225 112.64 36.9663 112.191 36.9663C111.764 36.9663 111.607 37.0225 111.337 37.2922Z" fill="#C97562"/>
<path d="M44.2696 50.809C43.2471 51.4944 43.5167 53.1461 44.6965 53.4832C45.2246 53.6292 49.7078 53.6292 50.2134 53.4832C51.3707 53.1573 51.6628 51.7978 50.7752 50.9438L50.4381 50.618L47.5505 50.5843C44.6853 50.5506 44.6516 50.5506 44.2696 50.809Z" fill="#C97562"/>
</g>
<defs>
<clipPath id="clip0_311_1372">
<rect width="123.595" height="80" fill="white"/>
</clipPath>
</defs>
</svg>
