<svg width="33" height="36" viewBox="0 0 33 36" fill="none" xmlns="http://www.w3.org/2000/svg">
<path d="M16.5002 32.1336C16.3099 32.1336 16.1557 32.2871 16.1557 32.4765C16.1557 32.6658 16.3099 32.8193 16.5002 32.8193C21.0211 32.8195 25.1172 30.9942 28.0795 28.0448C31.0425 25.0959 32.876 21.0184 32.8759 16.518C32.876 12.0176 31.0424 7.94015 28.0795 4.99129C25.1172 2.04192 21.0212 0.216611 16.5002 0.216797C11.9793 0.216611 7.88311 2.04192 4.9208 4.99133C1.95796 7.9402 0.124325 12.0177 0.124512 16.5181C0.124325 20.4643 1.53442 24.0863 3.8795 26.906C6.22434 29.726 9.50547 31.7474 13.2496 32.4982C13.4361 32.5355 13.6177 32.4154 13.6553 32.2298C13.6928 32.0442 13.5722 31.8634 13.3857 31.826C9.80058 31.1072 6.65732 29.1711 4.4102 26.4687C2.16321 23.766 0.813569 20.3007 0.813382 16.5181C0.813569 12.205 2.56866 8.30322 5.40792 5.4763C8.24779 2.64989 12.1673 0.90277 16.5002 0.902584C20.833 0.90277 24.7526 2.64989 27.5924 5.4763C30.4317 8.30322 32.1868 12.205 32.1869 16.5181C32.1868 20.8313 30.4317 24.733 27.5924 27.5599C24.7526 30.3863 20.8331 32.1334 16.5002 32.1336Z" fill="#6D807E"/>
<path d="M15.1385 31.0202L13.0372 35.0887C12.9502 35.2571 13.0169 35.4638 13.186 35.5504C13.3552 35.637 13.5629 35.5706 13.6499 35.4023L15.7512 31.3338C15.8381 31.1653 15.7715 30.9586 15.6023 30.872C15.4331 30.7854 15.2255 30.8517 15.1385 31.0202Z" fill="#6D807E"/>
</svg>
