<svg width="50" height="50" viewBox="0 0 50 50" fill="none" xmlns="http://www.w3.org/2000/svg">
<path d="M1.46386 25.2735L24.4045 2.33134C25.2812 1.45692 26.4493 0.937098 27.684 0.875184L44.7516 0.00653048C46.163 -0.0657352 47.5377 0.464441 48.5383 1.46386C49.5366 2.46327 50.0667 3.83915 49.9933 5.25038L49.1258 22.3165C49.0638 23.5524 48.5452 24.7204 47.6707 25.5948L24.728 48.5371C22.7772 50.4876 19.6125 50.4876 17.6617 48.5371L1.46386 32.3384C-0.489124 30.3865 -0.486781 27.2231 1.46386 25.2735ZM34.9039 15.0967C36.5104 16.7031 39.1128 16.7031 40.7193 15.0967C42.3258 13.4902 42.3258 10.8867 40.7193 9.28027C39.1128 7.67382 36.5104 7.67382 34.9039 9.28027C33.2974 10.8867 33.2974 13.4902 34.9039 15.0967Z" fill="#C97562"/>
</svg>
