<svg width="82" height="80" viewBox="0 0 82 80" fill="none" xmlns="http://www.w3.org/2000/svg">
<g clip-path="url(#clip0_315_1482)">
<path d="M3.92662 0.124441C3.22691 0.279932 2.41836 0.668659 1.8275 1.14291C1.26773 1.59383 0.622443 2.47235 0.389207 3.09431C-0.0072945 4.14388 -0.0072945 4.09723 0.0160291 11.5763C0.0471273 19.3509 0.000480036 18.7522 0.59912 19.9417C0.987846 20.7114 1.93634 21.6444 2.72157 22.0253C3.04032 22.1808 3.53012 22.3752 3.81 22.4451C4.29203 22.5773 6.22011 22.5851 40.8557 22.5851C76.0743 22.5851 77.4116 22.5773 77.9014 22.4451C79.2775 22.0564 80.4825 21.0924 81.0734 19.9106C81.6565 18.7445 81.6409 19.0321 81.6176 11.0399C81.5943 4.01949 81.5943 3.91842 81.431 3.49859C80.7779 1.79597 79.6973 0.730856 78.0568 0.178864C77.6448 0.0466957 76.3853 0.0389214 41.05 0.0233727C8.9101 0.0155983 4.40087 0.0233727 3.92662 0.124441ZM77.2172 2.34019C78.0724 2.52677 78.7021 3.00879 79.0831 3.79402L79.3396 4.31492V11.312V18.3091L79.122 18.7522C78.8576 19.2887 78.4456 19.7163 77.8858 20.0195L77.4738 20.2527L40.9567 20.276L4.43974 20.2916L4.01214 20.1361C3.4135 19.9106 2.86151 19.3897 2.55053 18.7522L2.29397 18.2313L2.27065 11.5219C2.24732 4.04281 2.23955 4.22162 2.76822 3.44417C2.91593 3.22648 3.22691 2.9155 3.4446 2.76778C4.24538 2.22357 0.917874 2.26244 40.7546 2.26244C67.1492 2.25467 76.914 2.27799 77.2172 2.34019Z" fill="#6D807E"/>
<path d="M6.53027 11.3119V15.5491H7.65758H8.78489V11.3119V7.07483H7.65758H6.53027V11.3119Z" fill="#6D807E"/>
<path d="M72.8477 11.3119V15.5491H74.0138H75.18V11.3119V7.07483H74.0138H72.8477V11.3119Z" fill="#6D807E"/>
<path d="M13.2712 9.69488C13.2401 9.7182 13.2168 10.4568 13.2168 11.3275V12.9058H14.8494H16.4821V11.2731V9.64046H14.9039C14.0331 9.64046 13.2945 9.66378 13.2712 9.69488Z" fill="#6D807E"/>
<path d="M20.4473 11.2731V12.9058H22.041H23.6348V11.2731V9.64046H22.041H20.4473V11.2731Z" fill="#6D807E"/>
<path d="M27.5996 11.2731V12.9058H29.2323H30.8649L30.8494 11.2887L30.826 9.67933L29.2167 9.656L27.5996 9.64046V11.2731Z" fill="#6D807E"/>
<path d="M34.752 11.2731V12.9058H36.3846H38.0173L38.0017 11.2887L37.9784 9.67933L36.3691 9.656L34.752 9.64046V11.2731Z" fill="#6D807E"/>
<path d="M3.88696 28.8125C2.50309 29.1079 1.16587 30.1575 0.559459 31.417C-0.0236312 32.6142 -0.00808213 32.4354 0.0152415 40.2722C0.0463396 48.0389 -0.000307608 47.4558 0.606106 48.6298C1.01038 49.4228 1.9511 50.348 2.72078 50.7134C3.03954 50.8611 3.52156 51.0477 3.77812 51.1099C4.21349 51.2187 7.82088 51.2343 40.8316 51.2343C73.4924 51.2343 77.4496 51.2187 77.8617 51.1176C79.6654 50.6512 81.0259 49.2906 81.4846 47.518C81.6246 46.9583 81.6323 46.6006 81.6323 40.0078C81.6323 32.311 81.6401 32.4976 81.1115 31.417C80.8938 30.9816 80.6528 30.6551 80.1941 30.1964C79.4866 29.4733 78.8102 29.0846 77.8384 28.8358C77.2631 28.6881 76.5711 28.6881 40.8238 28.6959C9.95888 28.6959 4.31456 28.7192 3.88696 28.8125ZM77.8384 31.2381C78.437 31.5336 78.8491 31.9534 79.1367 32.5676L79.3389 33.003V40V46.9971L79.1678 47.3625C78.9346 47.8757 78.3515 48.4743 77.8306 48.7231L77.3952 48.9408H40.816H4.23682L3.87141 48.7619C3.28832 48.4665 2.82962 48.0156 2.54974 47.4403L2.29318 46.9194L2.26986 40.21C2.24653 32.7386 2.23876 32.9252 2.75965 32.1322C3.07064 31.658 3.71592 31.1993 4.26014 31.0516C4.55557 30.9738 11.7626 30.9583 40.9715 30.966L77.3175 30.9816L77.8384 31.2381Z" fill="#6D807E"/>
<path d="M6.53027 40.0001V44.2372H7.65758H8.78489V40.0001V35.7629H7.65758H6.53027V40.0001Z" fill="#6D807E"/>
<path d="M72.8477 40.0001V44.2372H74.0138H75.18V40.0001V35.7629H74.0138H72.8477V40.0001Z" fill="#6D807E"/>
<path d="M13.2712 38.3829C13.2401 38.4062 13.2168 39.1448 13.2168 40.0156V41.5938H14.8494H16.4821V39.9612V38.3285H14.9039C14.0331 38.3285 13.2945 38.3518 13.2712 38.3829Z" fill="#6D807E"/>
<path d="M20.4473 39.9612V41.5938H22.041H23.6348V39.9612V38.3285H22.041H20.4473V39.9612Z" fill="#6D807E"/>
<path d="M27.5996 39.9612V41.5938H29.2323H30.8649L30.8494 39.9767L30.826 38.3674L29.2167 38.3441L27.5996 38.3285V39.9612Z" fill="#6D807E"/>
<path d="M34.752 39.9612V41.5938H36.3846H38.0173L38.0017 39.9767L37.9784 38.3674L36.3691 38.3441L34.752 38.3285V39.9612Z" fill="#6D807E"/>
<path d="M3.98834 57.4539C2.5656 57.7415 1.19728 58.7989 0.544224 60.1283C-0.00776873 61.2323 5.83565e-06 61.1546 5.83565e-06 68.6492C5.83565e-06 76.175 -0.00776873 76.0583 0.551998 77.2012C0.808558 77.7221 1.01847 77.9942 1.50827 78.484C2.20797 79.1759 2.83771 79.5336 3.76288 79.7823C4.28378 79.9145 5.70652 79.9223 40.8086 79.9223C81.2984 79.9223 77.7299 79.9689 78.9116 79.4014C79.7357 79.0127 80.723 78.0253 81.1118 77.2012C81.6482 76.0817 81.6327 76.3693 81.6327 68.6492C81.6327 60.9291 81.6482 61.2167 81.1118 60.0972C80.723 59.2731 79.7357 58.2857 78.9116 57.897C77.7299 57.3295 81.2984 57.3761 40.8163 57.3839C20.7425 57.3917 4.16716 57.4228 3.98834 57.4539ZM77.7454 59.8484C78.5151 60.2294 79.036 60.8358 79.2537 61.5899C79.3703 61.9709 79.3781 62.7561 79.3625 68.8513L79.3392 75.6852L79.1215 76.1128C78.8338 76.6725 78.3751 77.1312 77.8387 77.4033L77.3955 77.6288H40.8552H4.31488L3.79398 77.3722C3.00875 76.9913 2.52673 76.3615 2.34014 75.5064C2.27795 75.2187 2.25462 73.1118 2.25462 68.6259C2.25462 61.4111 2.23907 61.5899 2.78329 60.8047C3.10982 60.3227 3.65404 59.9184 4.19048 59.7551C4.50146 59.6541 9.57824 59.6463 40.9718 59.6541L77.3955 59.6696L77.7454 59.8484Z" fill="#6D807E"/>
<path d="M6.53027 68.6492V72.9252H7.65758H8.78489V68.6492V64.3732H7.65758H6.53027V68.6492Z" fill="#6D807E"/>
<path d="M72.8866 64.4665C72.8633 64.5209 72.8555 66.4413 72.8633 68.727L72.8866 72.8864H74.0139H75.1412V68.6492V64.4121L74.0294 64.3888C73.1898 64.3732 72.9099 64.3888 72.8866 64.4665Z" fill="#6D807E"/>
<path d="M13.2168 68.6492V70.2819H14.8494H16.4821V68.6492V67.0166H14.8494H13.2168V68.6492Z" fill="#6D807E"/>
<path d="M20.4473 68.6492V70.2819H22.041H23.6348V68.6492V67.0166H22.041H20.4473V68.6492Z" fill="#6D807E"/>
<path d="M27.5996 68.6492V70.2819H29.2323H30.8649V68.6492V67.0166H29.2323H27.5996V68.6492Z" fill="#6D807E"/>
<path d="M34.752 68.6492V70.2819H36.3846H38.0173V68.6492V67.0166H36.3846H34.752V68.6492Z" fill="#6D807E"/>
</g>
<defs>
<clipPath id="clip0_315_1482">
<rect width="81.7104" height="80" fill="white"/>
</clipPath>
</defs>
</svg>
